<svg version="1.1" id="Layer_1" xmlns="http://www.w3.org/2000/svg" xmlns:xlink="http://www.w3.org/1999/xlink" x="0px" y="0px"
	 width="100%" viewBox="0 0 1254 1254" enable-background="new 0 0 1254 1254" xml:space="preserve">
<path fill="#10012A" opacity="1.000000" stroke="none" 
	d="
M553.000000,1255.000000 
	C368.666656,1255.000000 184.833328,1255.000000 1.000000,1255.000000 
	C1.000000,837.000000 1.000000,419.000000 1.000000,1.000000 
	C419.000000,1.000000 837.000000,1.000000 1255.000000,1.000000 
	C1255.000000,419.000000 1255.000000,837.000000 1255.000000,1255.000000 
	C1021.166687,1255.000000 787.333313,1255.000000 553.000000,1255.000000 
M905.921692,599.335693 
	C904.454224,592.930115 902.986755,586.524536 902.519226,579.996887 
	C907.673706,579.962646 912.831299,579.804932 917.981445,579.938354 
	C921.307678,580.024536 923.299316,579.419739 923.307434,575.379272 
	C923.315674,571.261963 921.473816,570.325745 917.803284,570.353149 
	C911.517151,570.400024 905.227966,570.047058 898.724243,569.264465 
	C897.400330,562.846130 896.076355,556.427734 895.712952,549.860901 
	C902.192932,549.826965 908.679443,549.603882 915.150391,549.828918 
	C919.125305,549.967224 919.826294,548.113647 919.860779,544.688965 
	C919.895813,541.211731 918.662781,539.971497 915.205750,540.023987 
	C907.569336,540.139893 899.928467,539.958252 892.198608,539.060852 
	C890.436768,530.824951 888.674988,522.589050 887.872498,514.321045 
	C900.496826,514.295044 913.121399,514.213318 925.745239,514.279663 
	C929.185547,514.297729 931.438293,513.795654 931.426575,509.475494 
	C931.415100,505.225861 929.383606,504.594391 925.808350,504.686646 
	C917.839905,504.892242 909.862122,504.876160 901.890564,504.769196 
	C895.943909,504.689423 890.001099,504.325836 883.990540,503.313293 
	C873.215332,466.823669 838.257996,438.530640 796.643555,439.512268 
	C751.006775,440.588776 705.331543,440.039795 659.673096,440.193787 
	C655.673767,440.207275 651.674194,440.155334 647.675049,440.181335 
	C644.212341,440.203827 642.462158,442.006104 642.459290,445.458130 
	C642.455078,450.457306 642.445435,455.456970 642.510681,460.455505 
	C642.589783,466.519012 643.475830,467.515015 649.581177,467.152252 
	C668.705261,466.015900 687.810242,464.537567 706.940247,463.523468 
	C737.884583,461.882965 768.836609,460.352600 799.798218,459.088104 
	C813.704224,458.520172 826.422668,462.837036 837.823059,470.714081 
	C854.855408,482.482513 864.173645,498.922394 868.513062,519.109802 
	C878.089355,563.660034 888.516418,608.026917 898.490051,652.492493 
	C902.502319,670.380127 893.462097,688.094116 876.704529,695.763062 
	C860.770874,703.054932 843.361755,698.145935 832.005554,683.189453 
	C825.259094,674.304077 818.338867,665.547058 811.744812,656.550537 
	C804.441162,646.585815 794.620239,640.337036 783.019043,636.918579 
	C768.025757,632.500610 752.565491,634.798218 737.296631,634.644287 
	C736.225281,634.633484 734.416260,637.116028 734.188660,638.625793 
	C733.697205,641.886902 734.255737,645.293152 733.933594,648.596069 
	C733.523987,652.796875 735.481140,653.689087 739.204834,653.605408 
	C748.032410,653.406799 756.867126,653.478333 765.698730,653.508728 
	C778.846191,653.554016 789.631592,658.470093 797.614502,669.117798 
	C802.907898,676.178223 808.481995,683.042725 813.492554,690.297363 
	C821.987610,702.597107 832.481140,712.073120 847.178894,716.260376 
	C885.278931,727.114563 923.773132,692.662292 917.506958,652.846497 
	C915.285034,638.727844 911.516968,624.852600 909.427246,610.576172 
	C929.905273,610.487549 950.383240,610.354736 970.861267,610.351013 
	C974.548279,610.350342 976.371948,609.235291 976.354187,605.192078 
	C976.336426,601.114929 974.165344,600.663269 970.903442,600.678833 
	C955.586548,600.751770 940.268738,600.741821 924.951782,600.659180 
	C918.647705,600.625183 912.344971,600.333984 905.921692,599.335693 
M371.025818,504.416046 
	C364.568787,504.512146 358.104645,504.828888 351.657349,504.621857 
	C347.779480,504.497345 346.355194,505.750061 346.297333,509.676086 
	C346.240051,513.563904 347.843140,514.457092 351.370697,514.365295 
	C357.316223,514.210571 363.272858,514.482971 369.136719,515.409851 
	C367.365906,523.536865 365.595093,531.663940 363.243713,539.812866 
	C352.481110,539.973145 341.718323,540.246826 330.955963,540.231628 
	C327.226379,540.226379 325.006744,540.809387 325.059814,545.324097 
	C325.113678,549.903259 327.822601,549.802490 331.010284,549.813354 
	C341.119141,549.847717 351.227692,549.980591 361.219208,550.870972 
	C359.812347,557.282349 358.405487,563.693665 356.082489,570.317932 
	C337.810974,570.378845 319.539490,570.468201 301.267975,570.473083 
	C298.146576,570.473938 295.689545,570.685059 295.591156,574.807129 
	C295.499054,578.667175 296.911713,580.069519 300.831451,580.052734 
	C318.766205,579.975830 336.701935,580.131836 354.541016,581.010132 
	C353.090851,587.494324 351.640656,593.978516 349.275177,600.651245 
	C344.147400,600.687073 339.015808,600.857056 333.893188,600.711121 
	C330.533386,600.615479 329.603577,602.149353 329.639862,605.224609 
	C329.674622,608.164795 329.795685,610.478210 333.736053,610.364075 
	C338.355988,610.230164 342.986816,610.473511 347.496307,611.422668 
	C344.792877,623.445374 341.536224,635.379150 339.585602,647.522766 
	C338.339569,655.280090 337.629395,663.618408 339.104706,671.225769 
	C343.651642,694.672119 357.675476,710.810669 381.068695,716.476013 
	C404.028625,722.036316 423.488129,714.778564 438.112488,695.846069 
	C444.626343,687.413208 451.066284,678.917725 457.323975,670.294067 
	C465.472809,659.064270 476.460388,653.627258 490.206451,653.547363 
	C498.870239,653.497009 507.534729,653.569946 516.198730,653.546326 
	C517.896423,653.541687 519.593628,653.348206 522.398865,653.172363 
	C519.709229,650.184570 517.306824,648.388794 516.068359,645.991699 
	C510.119751,634.478088 500.170044,633.593750 488.802307,634.305603 
	C470.105652,635.476440 454.702301,642.333862 443.307648,657.519836 
	C436.712860,666.308899 430.105804,675.096191 423.222534,683.657715 
	C420.446075,687.111206 417.316406,690.566345 413.658539,692.974121 
	C400.510590,701.628662 385.152802,701.068359 372.443024,692.023010 
	C360.423767,683.469116 354.228180,667.048279 357.446533,652.725037 
	C367.763763,606.808105 377.661987,560.793274 388.433167,514.983398 
	C395.432556,485.215118 414.216675,466.111176 444.497711,460.092072 
	C457.484863,457.510559 470.965790,456.207947 484.201141,456.347076 
	C507.323303,456.590057 530.429260,458.392273 553.540161,459.577271 
	C554.064331,459.604156 554.566406,460.062164 555.261292,460.410492 
	C508.959656,490.763092 492.972565,550.728943 516.971985,599.569763 
	C534.559937,635.362610 580.879944,665.065308 609.950134,658.225464 
	C609.950134,651.631042 609.877014,644.979309 609.984131,638.330505 
	C610.030579,635.447815 609.019775,634.226318 605.993958,633.953308 
	C577.987610,631.425781 556.748352,617.953674 542.263306,593.918884 
	C516.883423,551.806519 534.764587,495.583984 579.699036,475.725006 
	C591.838074,470.360077 604.472900,468.109100 617.663696,468.922577 
	C621.752441,469.174713 623.397644,467.667511 623.201477,463.463654 
	C622.937744,457.811279 622.896423,452.121613 623.233521,446.476257 
	C623.521667,441.650299 621.789429,440.137970 616.940002,440.146057 
	C590.281677,440.190582 563.622559,439.959656 536.964417,439.730286 
	C531.809326,439.685944 526.595276,439.645569 521.516296,438.884003 
	C506.618958,436.650116 491.703857,435.770142 476.684601,437.116791 
	C469.221100,437.786011 461.773315,438.681641 454.298340,439.163269 
	C414.145599,441.750366 382.268982,466.889404 371.025818,504.416046 
M628.001892,572.500000 
	C628.008423,595.998169 628.379517,619.503723 627.900513,642.992004 
	C627.548523,660.253967 630.433899,659.233582 645.617615,658.923401 
	C650.696228,658.819641 653.087708,656.121155 653.113892,650.975525 
	C653.180786,637.810303 653.167664,624.644714 653.182922,611.479248 
	C653.188477,606.681458 653.183838,601.883667 653.183838,596.526855 
	C656.773804,596.526855 659.896851,596.525452 663.019958,596.526978 
	C678.518372,596.534485 694.016846,596.549561 709.515259,596.548035 
	C717.958252,596.547180 719.573608,594.959351 719.564392,586.727905 
	C719.561829,584.394836 719.537354,582.061768 719.515442,579.728760 
	C719.450012,572.756409 717.508484,570.763367 710.666443,570.755981 
	C693.168091,570.737122 675.669739,570.748169 658.171387,570.729248 
	C656.584229,570.727539 654.997192,570.595703 653.480896,570.527527 
	C653.480896,559.300110 653.480896,548.539612 653.480896,537.273682 
	C658.267151,537.273682 662.746033,537.270935 667.224854,537.274109 
	C687.556152,537.288574 707.887512,537.313782 728.218811,537.315674 
	C736.140625,537.316467 738.191895,535.192810 738.115845,527.148682 
	C738.090637,524.482544 738.068848,521.814819 737.958862,519.151367 
	C737.753357,514.173218 735.503174,511.824646 730.493347,511.815399 
	C699.329773,511.757935 668.165894,511.745636 637.002319,511.798309 
	C630.538147,511.809235 628.032776,514.489746 628.021118,521.004700 
	C627.991150,537.836426 628.006042,554.668213 628.001892,572.500000 
M459.797150,552.944824 
	C458.872284,551.959961 457.251404,551.041199 457.150421,549.978088 
	C456.821106,546.512085 457.064911,542.993347 457.055206,539.494995 
	C457.031281,530.885559 455.095032,528.968750 446.453094,528.955750 
	C438.811554,528.944153 436.683746,531.190491 436.673126,539.293701 
	C436.667328,543.709106 436.672058,548.124512 436.672058,552.855591 
	C431.241608,552.855591 426.605957,552.804077 421.971863,552.867432 
	C414.699982,552.966858 412.958191,555.256470 413.001129,564.475281 
	C413.031403,570.977173 415.594238,573.607178 422.006500,573.647461 
	C426.778809,573.677429 431.551453,573.653381 436.582458,573.653381 
	C436.582458,578.717896 436.507416,583.192688 436.599243,587.664062 
	C436.755005,595.250000 438.972015,597.187500 447.256439,597.186768 
	C454.670715,597.186096 456.837311,595.144043 456.959808,587.851990 
	C457.037506,583.225220 456.974335,578.596069 456.974335,573.610535 
	C462.396515,573.610535 467.354919,573.713440 472.307220,573.584167 
	C478.355682,573.426331 480.763031,570.917847 480.859070,564.973877 
	C480.883270,563.475159 480.911438,561.970825 480.815704,560.476929 
	C480.506775,555.655640 478.130981,553.197815 473.241730,552.987854 
	C469.084717,552.809387 464.914093,552.947754 459.797150,552.944824 
M444.021820,408.339539 
	C431.092407,410.768433 425.821960,417.329102 424.150940,433.749664 
	C427.540833,431.106720 430.774048,429.044373 433.438110,426.407074 
	C438.033173,421.858154 443.356903,420.289246 449.723236,420.382477 
	C465.218658,420.609497 480.720154,420.465820 496.218872,420.400513 
	C501.549377,420.378021 506.326813,421.506531 510.552277,425.097015 
	C513.528687,427.626251 517.026733,429.541595 520.600586,431.938019 
	C517.572571,412.907227 511.691071,408.004791 493.417786,408.215363 
	C477.254242,408.401672 461.087067,408.278625 444.021820,408.339539 
M745.773743,411.137909 
	C738.210815,415.803101 738.049927,424.087555 734.768921,432.440521 
	C738.972839,429.816101 742.256042,428.357178 744.783752,426.065125 
	C749.999939,421.335175 756.008789,420.189545 762.763489,420.285461 
	C777.921082,420.500763 793.083984,420.421204 808.244019,420.343903 
	C813.325317,420.317993 817.647949,421.839935 821.468018,425.218445 
	C824.595703,427.984375 827.973633,430.467316 832.259644,433.889313 
	C831.418701,430.344513 830.981323,428.244141 830.420288,426.177338 
	C826.624084,412.193481 821.013306,408.043579 806.470764,408.122070 
	C790.644226,408.207428 774.813477,407.975128 758.992371,408.283539 
	C754.793457,408.365387 750.623413,409.924408 745.773743,411.137909 
M376.334076,811.444946 
	C376.334076,814.572266 376.334076,817.699585 376.334076,821.112488 
	C379.121735,821.112488 381.520782,821.112488 384.422607,821.112488 
	C384.422607,811.326904 384.422607,801.783325 384.422607,790.945374 
	C386.037415,792.936096 386.860504,793.871277 387.596527,794.870667 
	C393.520844,802.914307 399.187683,811.168335 405.523621,818.872498 
	C406.973022,820.634705 410.719238,821.050720 413.393311,821.013306 
	C414.571259,820.996826 416.683258,818.318481 416.716003,816.812622 
	C416.986755,804.369690 416.869202,791.918274 416.869202,779.305420 
	C413.866333,779.305420 411.475464,779.305420 408.525818,779.305420 
	C408.525818,789.058960 408.525818,798.540222 408.525818,809.201965 
	C401.049927,799.297363 394.282043,790.490356 387.710602,781.539185 
	C385.359375,778.336487 382.051544,778.157776 379.309875,779.429443 
	C377.700134,780.176208 376.452789,783.341553 376.376099,785.467224 
	C376.075897,793.787781 376.306702,802.127502 376.334076,811.444946 
M507.051880,812.430237 
	C507.051880,815.344849 507.051880,818.259460 507.051880,821.083130 
	C510.135956,821.083130 512.523071,821.083130 515.322266,821.083130 
	C515.322266,815.771179 515.322266,810.840820 515.322266,805.845886 
	C519.249512,804.711975 522.029175,805.380066 524.371094,808.513123 
	C526.453247,811.298767 529.410828,813.481323 531.235779,816.397156 
	C534.788147,822.072998 539.713135,822.233643 545.871826,821.010620 
	C541.142090,815.742554 536.723267,810.820801 531.943115,805.496643 
	C544.064209,804.261597 546.228027,802.057861 546.217407,791.856140 
	C546.216370,790.858337 546.250488,789.856934 546.180176,788.863403 
	C545.801758,783.516602 543.017334,779.653137 537.710876,779.388489 
	C527.658630,778.887207 517.563599,779.243408 507.061584,779.243408 
	C507.061584,790.234802 507.061584,800.843201 507.051880,812.430237 
M323.579468,778.991638 
	C322.747192,778.989807 321.914917,778.984436 321.082642,778.986633 
	C311.660736,779.011841 308.152496,782.512451 308.126221,791.943604 
	C308.109039,798.102234 308.005585,804.263550 308.143707,810.419067 
	C308.303436,817.535156 312.341858,821.486511 319.444855,821.536133 
	C326.101868,821.582642 332.761475,821.501526 339.417633,821.364075 
	C346.481781,821.218262 350.319946,817.620605 350.498352,810.630493 
	C350.676636,803.645630 350.626343,796.645264 350.379944,789.662109 
	C350.149567,783.132996 346.096832,779.257874 339.536407,779.054077 
	C334.547333,778.899109 329.550262,779.002930 323.579468,778.991638 
M609.428589,780.891418 
	C608.525146,780.477295 607.627502,779.718079 606.717285,779.702576 
	C597.603149,779.547424 588.452637,779.018372 579.385010,779.645813 
	C574.475769,779.985535 571.639954,784.031189 571.522705,789.172852 
	C571.359375,796.332031 571.246521,803.501465 571.445984,810.657227 
	C571.640259,817.628601 575.530334,821.388062 582.491699,821.510010 
	C589.317627,821.629578 596.153015,821.590515 602.976196,821.371094 
	C609.888367,821.148865 613.594910,817.245850 613.710571,810.243530 
	C613.820557,803.582458 614.118103,796.887756 613.578796,790.269287 
	C613.330261,787.218506 611.282471,784.314392 609.428589,780.891418 
M818.926208,818.136047 
	C819.612366,824.587402 823.985107,820.103271 827.030640,821.377258 
	C827.030640,815.643494 827.030640,810.550537 827.030640,804.287292 
	C830.067322,805.476929 832.794189,805.874329 834.568909,807.388062 
	C837.708191,810.065735 840.781250,813.100952 842.954224,816.568054 
	C846.509827,822.241333 851.328430,821.999146 857.160156,820.860535 
	C852.670593,815.800720 848.415100,811.004761 843.746033,805.742615 
	C845.411499,805.445862 846.336975,805.148865 847.265930,805.137268 
	C852.317261,805.074097 856.309448,803.161133 857.124817,797.880249 
	C858.053284,791.867126 859.311096,785.473450 853.455566,780.840759 
	C852.583923,780.151184 851.349731,779.551086 850.277344,779.541199 
	C839.885864,779.444763 829.493103,779.483276 818.918091,779.483276 
	C818.918091,792.249268 818.918091,804.730286 818.926208,818.136047 
M770.930481,804.154724 
	C777.379211,804.154724 783.827942,804.154724 790.416382,804.154724 
	C790.416382,801.362549 790.416382,799.144287 790.416382,796.393677 
	C781.860046,796.393677 773.601318,796.393677 765.420471,796.393677 
	C764.548401,786.921997 764.548401,786.919373 773.338440,786.913330 
	C779.815308,786.908875 786.292175,786.912476 793.005981,786.912476 
	C793.005981,784.156311 793.005981,781.744385 793.005981,778.965027 
	C786.058472,778.965027 779.405212,778.961975 772.751953,778.966736 
	C770.585754,778.968262 768.409546,778.860962 766.255310,779.027710 
	C760.617432,779.464111 757.177551,782.740967 757.043579,788.250061 
	C756.853210,796.077332 756.831482,803.917969 757.064636,811.743164 
	C757.237610,817.546814 760.746521,821.279602 766.426880,821.462219 
	C775.203430,821.744385 783.995728,821.536560 793.004883,821.536560 
	C793.004883,818.728943 793.004883,816.468872 793.004883,813.616516 
	C785.115051,813.616516 777.324158,813.551270 769.535278,813.648560 
	C766.418213,813.687500 764.800415,812.585266 765.028442,809.284607 
	C765.139893,807.670105 765.047729,806.041565 765.047729,804.146790 
	C767.071106,804.146790 768.549988,804.146790 770.930481,804.154724 
M988.553101,792.913818 
	C986.249695,790.080627 983.514404,787.492493 981.737427,784.360596 
	C978.542969,778.730652 974.014282,778.104248 968.061584,779.587097 
	C973.362305,786.534668 978.450989,793.204285 983.522522,799.851379 
	C978.047607,807.060059 972.911072,813.823181 967.731567,820.642883 
	C974.606812,823.082458 978.811279,820.870789 981.938721,815.293823 
	C983.671814,812.203247 986.230469,809.575745 988.634644,806.457153 
	C991.358215,809.941345 994.133606,812.703918 995.953308,815.994812 
	C999.099365,821.684265 1003.646301,822.451904 1009.839355,820.985901 
	C1004.332825,813.742920 999.049744,806.793884 993.849731,799.954163 
	C999.173340,792.914551 1004.215759,786.246704 1009.252136,779.586853 
	C1002.138245,777.305786 997.918701,780.130066 994.719971,785.639465 
	C993.231567,788.202942 991.095215,790.390259 988.553101,792.913818 
M247.811264,816.439087 
	C250.687103,818.146851 253.468414,821.100464 256.456665,821.327209 
	C265.180084,821.989197 273.986115,821.562439 282.917725,821.562439 
	C282.917725,818.695312 282.917725,816.313538 282.917725,813.691406 
	C274.980103,813.691406 267.347473,813.648743 259.715637,813.709778 
	C255.992920,813.739563 254.212433,812.200134 254.332382,808.312378 
	C254.486206,803.326782 254.536774,798.322510 254.280594,793.344299 
	C254.040588,788.680359 255.703812,786.657104 260.587921,786.839294 
	C268.012115,787.116150 275.454254,786.911804 282.959808,786.911804 
	C282.959808,784.058167 282.959808,781.639893 282.959808,779.013000 
	C274.025696,779.013000 265.379608,778.852966 256.743073,779.070801 
	C251.224777,779.209961 246.687469,782.500977 246.546646,787.523804 
	C246.283051,796.924866 247.058777,806.355103 247.811264,816.439087 
M916.048706,800.495972 
	C915.968872,799.358459 915.889038,798.221008 915.774475,796.587646 
	C907.224915,796.587646 898.825317,796.587646 890.510376,796.587646 
	C889.246765,786.921143 889.363831,786.802917 898.433533,786.843201 
	C905.013855,786.872375 911.594482,786.848877 918.219360,786.848877 
	C918.219360,783.896545 918.219360,781.655396 918.219360,779.075806 
	C908.935852,779.075806 899.976196,778.902893 891.027832,779.144653 
	C886.133789,779.276855 882.345764,782.576538 882.232727,787.084961 
	C881.950623,798.338684 882.139771,809.604187 882.139771,821.076172 
	C884.986511,821.076172 887.383057,821.076172 890.140869,821.076172 
	C890.140869,815.484131 890.140869,810.209229 890.140869,804.347778 
	C897.765076,804.347778 905.035034,804.316528 912.304443,804.367004 
	C914.456726,804.381897 916.449829,804.429565 916.048706,800.495972 
M770.525513,574.377625 
	C784.146790,578.096680 791.145325,566.271118 789.505493,558.304565 
	C788.098877,551.470581 782.759949,546.840027 775.856018,546.607056 
	C769.033691,546.376770 763.337158,550.423279 761.545654,556.772278 
	C759.570679,563.771484 762.619080,570.190186 770.525513,574.377625 
M834.086914,546.603333 
	C827.820496,546.086487 823.014404,548.508484 820.007751,554.015991 
	C817.316345,558.945801 817.582031,563.946716 820.641418,568.669312 
	C824.158264,574.098083 830.660950,576.334961 836.806946,574.374023 
	C842.916199,572.424744 847.065857,566.758118 846.966980,560.500061 
	C846.859070,553.669739 842.539429,548.747192 834.086914,546.603333 
M793.645935,584.197571 
	C787.803650,592.436951 789.110107,601.715881 796.745972,606.215942 
	C804.089050,610.543457 813.308411,607.734863 817.033203,600.035645 
	C819.872070,594.167847 818.305054,587.043335 813.264465,582.900513 
	C807.771606,578.385742 800.518433,578.674072 793.645935,584.197571 
M808.487732,513.682922 
	C802.523193,512.180847 797.168152,513.198425 793.061584,517.993103 
	C789.664368,521.959595 788.996704,526.670166 790.631042,531.589294 
	C792.737244,537.928711 798.450317,541.842468 804.671936,541.411804 
	C811.096375,540.967163 816.765686,536.316101 818.008179,530.470703 
	C819.535034,523.287659 816.541260,517.629211 808.487732,513.682922 
M444.801727,786.887146 
	C449.050537,786.887146 453.299377,786.887146 457.890808,786.887146 
	C457.890808,798.701172 457.890808,809.814209 457.890808,821.048828 
	C460.767181,821.048828 463.275879,821.048828 466.116638,821.048828 
	C466.116638,809.530396 466.116638,798.432983 466.116638,786.759094 
	C471.491364,786.759094 476.541199,786.759094 481.618713,786.759094 
	C481.618713,783.923523 481.618713,781.674744 481.618713,779.309998 
	C468.288635,779.309998 455.252441,779.309998 440.970581,779.309998 
	C442.089447,782.235291 442.977142,784.556152 444.801727,786.887146 
M706.753967,806.488647 
	C706.753967,797.428223 706.753967,788.367859 706.753967,779.257324 
	C703.627991,779.257324 701.347168,779.257324 698.859009,779.257324 
	C698.859009,793.326965 698.859009,807.193604 698.859009,821.204346 
	C710.231995,821.204346 721.287842,821.204346 732.509644,821.204346 
	C732.509644,818.643860 732.509644,816.388306 732.509644,813.501648 
	C723.906616,813.501648 715.524536,813.501648 706.768555,813.501648 
	C706.768555,811.087708 706.768555,809.287109 706.753967,806.488647 
M673.622437,815.047363 
	C672.023926,814.588074 670.432922,813.765137 668.825684,813.732300 
	C661.739258,813.587036 654.648193,813.669495 647.061707,813.669495 
	C647.061707,801.683960 647.061707,790.480530 647.061707,779.282593 
	C644.264282,779.282593 641.988342,779.282593 639.424316,779.282593 
	C639.424316,793.344482 639.424316,807.194092 639.424316,821.169312 
	C650.884277,821.169312 662.105957,821.169312 673.667542,821.169312 
	C673.667542,819.182678 673.667542,817.536255 673.622437,815.047363 
M947.229797,779.233643 
	C944.810791,779.233643 942.391724,779.233643 939.911987,779.233643 
	C939.911987,793.477844 939.911987,807.240662 939.911987,821.121399 
	C942.731323,821.121399 945.292969,821.121399 947.902527,821.121399 
	C947.902527,807.159363 947.902527,793.523071 947.229797,779.233643 
M277.337524,570.434937 
	C271.864655,570.440552 266.391357,570.487671 260.919037,570.436279 
	C257.627777,570.405334 256.652679,572.134216 256.694000,575.159729 
	C256.731689,577.919250 256.890686,580.066040 260.571045,579.997437 
	C268.031494,579.858337 275.506348,580.162842 282.950531,579.789856 
	C284.289642,579.722717 286.391479,577.417908 286.621277,575.913940 
	C287.335358,571.241089 286.115204,570.591431 277.337524,570.434937 
M974.276001,545.292480 
	C974.396179,542.689148 974.512512,540.075623 970.772156,540.082947 
	C963.639709,540.096985 956.507263,540.138000 949.374817,540.146118 
	C945.390991,540.150635 945.632080,542.917358 945.543457,545.683350 
	C945.449219,548.624695 946.560730,549.916687 949.602173,549.861938 
	C956.401062,549.739380 963.216003,550.027039 969.994629,549.634094 
	C971.480286,549.547974 972.841736,547.319397 974.276001,545.292480 
M1009.872559,547.600098 
	C1010.437317,540.187317 1010.356628,540.105530 1002.882629,540.119568 
	C997.588318,540.129578 992.292419,540.203552 987.000122,540.101013 
	C983.223450,540.027832 982.821350,542.297668 982.759827,545.287964 
	C982.694763,548.451965 983.973694,549.859680 987.129089,549.831604 
	C993.250427,549.777161 999.374939,549.917114 1005.492676,549.759705 
	C1006.825256,549.725403 1008.134399,548.780640 1009.872559,547.600098 
M298.356293,514.361511 
	C301.187836,514.349854 304.037018,514.133423 306.846710,514.375610 
	C310.845825,514.720276 312.518768,513.484009 312.510376,509.121490 
	C312.501648,504.589447 310.205780,504.296600 306.809967,504.600830 
	C304.991608,504.763702 303.120026,504.449249 301.323425,504.706329 
	C299.489960,504.968750 296.181152,505.659027 296.178314,506.176514 
	C296.163635,508.873291 296.996857,511.574677 298.356293,514.361511 
M942.166687,641.879578 
	C942.166687,643.970337 942.166687,646.061096 942.166687,648.657043 
	C947.062439,648.657043 951.198242,648.826111 955.301270,648.534241 
	C956.285889,648.464233 957.907410,646.886963 957.937622,645.960510 
	C958.008179,643.801331 957.905273,641.158997 956.722961,639.565491 
	C955.439819,637.836121 944.269531,639.405945 942.166687,641.879578 
M309.241058,619.761902 
	C309.425140,617.984253 309.974731,616.141235 309.672058,614.450745 
	C309.449310,613.206543 308.215485,611.299133 307.252930,611.183838 
	C303.836578,610.774536 300.240875,610.524170 296.928375,611.227539 
	C295.552124,611.519714 294.195831,614.246765 293.773560,616.083374 
	C293.275024,618.251709 293.357513,621.012024 296.898193,620.923645 
	C300.820251,620.825806 304.739075,620.597656 309.241058,619.761902 
z"/>
<path fill="#FFFFFF" opacity="1.000000" stroke="none" 
	d="
M356.998596,570.105042 
	C358.405487,563.693665 359.812347,557.282349 361.665314,550.370789 
	C365.068878,549.206360 368.887451,550.432190 369.190918,545.084778 
	C369.444153,540.622253 366.818909,540.314148 363.824310,539.790955 
	C365.595093,531.663940 367.365906,523.536865 369.530396,514.898193 
	C372.291687,513.651184 375.521667,513.632996 376.851013,512.034363 
	C379.801544,508.486145 377.691895,505.477661 371.937408,504.239655 
	C382.268982,466.889404 414.145599,441.750366 454.298340,439.163269 
	C461.773315,438.681641 469.221100,437.786011 476.684601,437.116791 
	C491.703857,435.770142 506.618958,436.650116 521.516296,438.884003 
	C526.595276,439.645569 531.809326,439.685944 536.964417,439.730286 
	C563.622559,439.959656 590.281677,440.190582 616.940002,440.146057 
	C621.789429,440.137970 623.521667,441.650299 623.233521,446.476257 
	C622.896423,452.121613 622.937744,457.811279 623.201477,463.463654 
	C623.397644,467.667511 621.752441,469.174713 617.663696,468.922577 
	C604.472900,468.109100 591.838074,470.360077 579.699036,475.725006 
	C534.764587,495.583984 516.883423,551.806519 542.263306,593.918884 
	C556.748352,617.953674 577.987610,631.425781 605.993958,633.953308 
	C609.019775,634.226318 610.030579,635.447815 609.984131,638.330505 
	C609.877014,644.979309 609.950134,651.631042 609.950134,658.225464 
	C580.879944,665.065308 534.559937,635.362610 516.971985,599.569763 
	C492.972565,550.728943 508.959656,490.763092 555.261292,460.410492 
	C554.566406,460.062164 554.064331,459.604156 553.540161,459.577271 
	C530.429260,458.392273 507.323303,456.590057 484.201141,456.347076 
	C470.965790,456.207947 457.484863,457.510559 444.497711,460.092072 
	C414.216675,466.111176 395.432556,485.215118 388.433167,514.983398 
	C377.661987,560.793274 367.763763,606.808105 357.446533,652.725037 
	C354.228180,667.048279 360.423767,683.469116 372.443024,692.023010 
	C385.152802,701.068359 400.510590,701.628662 413.658539,692.974121 
	C417.316406,690.566345 420.446075,687.111206 423.222534,683.657715 
	C430.105804,675.096191 436.712860,666.308899 443.307648,657.519836 
	C454.702301,642.333862 470.105652,635.476440 488.802307,634.305603 
	C500.170044,633.593750 510.119751,634.478088 516.068359,645.991699 
	C517.306824,648.388794 519.709229,650.184570 522.398865,653.172363 
	C519.593628,653.348206 517.896423,653.541687 516.198730,653.546326 
	C507.534729,653.569946 498.870239,653.497009 490.206451,653.547363 
	C476.460388,653.627258 465.472809,659.064270 457.323975,670.294067 
	C451.066284,678.917725 444.626343,687.413208 438.112488,695.846069 
	C423.488129,714.778564 404.028625,722.036316 381.068695,716.476013 
	C357.675476,710.810669 343.651642,694.672119 339.104706,671.225769 
	C337.629395,663.618408 338.339569,655.280090 339.585602,647.522766 
	C341.536224,635.379150 344.792877,623.445374 347.872314,610.862305 
	C351.211609,609.837280 354.966705,611.142944 355.234863,605.817322 
	C355.440338,601.736633 353.495514,600.713867 350.190491,600.462708 
	C351.640656,593.978516 353.090851,587.494324 354.954742,580.484131 
	C359.009766,579.816772 362.935913,580.091492 363.013763,574.735107 
	C363.075226,570.508057 360.120117,570.197998 356.998596,570.105042 
z"/>
<path fill="#FFFFFF" opacity="1.000000" stroke="none" 
	d="
M886.913147,514.353149 
	C888.674988,522.589050 890.436768,530.824951 891.849548,539.588867 
	C890.004456,541.096130 887.545471,541.846252 887.244751,543.109985 
	C886.824341,544.876526 887.411255,547.718506 888.679565,548.823120 
	C890.026428,549.996277 892.673279,549.676941 894.752441,550.009399 
	C896.076355,556.427734 897.400330,562.846130 898.450562,569.606079 
	C894.559082,569.980225 893.119385,572.158508 893.332581,575.394165 
	C893.533264,578.441162 895.200378,580.218628 898.570312,579.874207 
	C899.534851,579.775574 900.535278,580.027649 901.519287,580.118958 
	C902.986755,586.524536 904.454224,592.930115 905.671875,599.945679 
	C901.878479,600.732300 900.624207,602.622559 900.804932,606.091797 
	C900.995422,609.747437 903.096436,610.390137 906.111267,610.255371 
	C906.881775,610.220947 907.673035,610.650085 908.454712,610.866211 
	C911.516968,624.852600 915.285034,638.727844 917.506958,652.846497 
	C923.773132,692.662292 885.278931,727.114563 847.178894,716.260376 
	C832.481140,712.073120 821.987610,702.597107 813.492554,690.297363 
	C808.481995,683.042725 802.907898,676.178223 797.614502,669.117798 
	C789.631592,658.470093 778.846191,653.554016 765.698730,653.508728 
	C756.867126,653.478333 748.032410,653.406799 739.204834,653.605408 
	C735.481140,653.689087 733.523987,652.796875 733.933594,648.596069 
	C734.255737,645.293152 733.697205,641.886902 734.188660,638.625793 
	C734.416260,637.116028 736.225281,634.633484 737.296631,634.644287 
	C752.565491,634.798218 768.025757,632.500610 783.019043,636.918579 
	C794.620239,640.337036 804.441162,646.585815 811.744812,656.550537 
	C818.338867,665.547058 825.259094,674.304077 832.005554,683.189453 
	C843.361755,698.145935 860.770874,703.054932 876.704529,695.763062 
	C893.462097,688.094116 902.502319,670.380127 898.490051,652.492493 
	C888.516418,608.026917 878.089355,563.660034 868.513062,519.109802 
	C864.173645,498.922394 854.855408,482.482513 837.823059,470.714081 
	C826.422668,462.837036 813.704224,458.520172 799.798218,459.088104 
	C768.836609,460.352600 737.884583,461.882965 706.940247,463.523468 
	C687.810242,464.537567 668.705261,466.015900 649.581177,467.152252 
	C643.475830,467.515015 642.589783,466.519012 642.510681,460.455505 
	C642.445435,455.456970 642.455078,450.457306 642.459290,445.458130 
	C642.462158,442.006104 644.212341,440.203827 647.675049,440.181335 
	C651.674194,440.155334 655.673767,440.207275 659.673096,440.193787 
	C705.331543,440.039795 751.006775,440.588776 796.643555,439.512268 
	C838.257996,438.530640 873.215332,466.823669 883.643677,503.765991 
	C879.657166,504.304901 877.762329,505.915680 878.105957,509.803345 
	C878.436279,513.540649 880.679504,514.425598 883.937866,514.175293 
	C884.919250,514.099915 885.920837,514.286499 886.913147,514.353149 
z"/>
<path fill="#FFFFFF" opacity="1.000000" stroke="none" 
	d="
M628.002441,572.000000 
	C628.006042,554.668213 627.991150,537.836426 628.021118,521.004700 
	C628.032776,514.489746 630.538147,511.809235 637.002319,511.798309 
	C668.165894,511.745636 699.329773,511.757935 730.493347,511.815399 
	C735.503174,511.824646 737.753357,514.173218 737.958862,519.151367 
	C738.068848,521.814819 738.090637,524.482544 738.115845,527.148682 
	C738.191895,535.192810 736.140625,537.316467 728.218811,537.315674 
	C707.887512,537.313782 687.556152,537.288574 667.224854,537.274109 
	C662.746033,537.270935 658.267151,537.273682 653.480896,537.273682 
	C653.480896,548.539612 653.480896,559.300110 653.480896,570.527527 
	C654.997192,570.595703 656.584229,570.727539 658.171387,570.729248 
	C675.669739,570.748169 693.168091,570.737122 710.666443,570.755981 
	C717.508484,570.763367 719.450012,572.756409 719.515442,579.728760 
	C719.537354,582.061768 719.561829,584.394836 719.564392,586.727905 
	C719.573608,594.959351 717.958252,596.547180 709.515259,596.548035 
	C694.016846,596.549561 678.518372,596.534485 663.019958,596.526978 
	C659.896851,596.525452 656.773804,596.526855 653.183838,596.526855 
	C653.183838,601.883667 653.188477,606.681458 653.182922,611.479248 
	C653.167664,624.644714 653.180786,637.810303 653.113892,650.975525 
	C653.087708,656.121155 650.696228,658.819641 645.617615,658.923401 
	C630.433899,659.233582 627.548523,660.253967 627.900513,642.992004 
	C628.379517,619.503723 628.008423,595.998169 628.002441,572.000000 
z"/>
<path fill="#8A2BE2" opacity="1.000000" stroke="none" 
	d="
M460.273315,552.945435 
	C464.914093,552.947754 469.084717,552.809387 473.241730,552.987854 
	C478.130981,553.197815 480.506775,555.655640 480.815704,560.476929 
	C480.911438,561.970825 480.883270,563.475159 480.859070,564.973877 
	C480.763031,570.917847 478.355682,573.426331 472.307220,573.584167 
	C467.354919,573.713440 462.396515,573.610535 456.974335,573.610535 
	C456.974335,578.596069 457.037506,583.225220 456.959808,587.851990 
	C456.837311,595.144043 454.670715,597.186096 447.256439,597.186768 
	C438.972015,597.187500 436.755005,595.250000 436.599243,587.664062 
	C436.507416,583.192688 436.582458,578.717896 436.582458,573.653381 
	C431.551453,573.653381 426.778809,573.677429 422.006500,573.647461 
	C415.594238,573.607178 413.031403,570.977173 413.001129,564.475281 
	C412.958191,555.256470 414.699982,552.966858 421.971863,552.867432 
	C426.605957,552.804077 431.241608,552.855591 436.672058,552.855591 
	C436.672058,548.124512 436.667328,543.709106 436.673126,539.293701 
	C436.683746,531.190491 438.811554,528.944153 446.453094,528.955750 
	C455.095032,528.968750 457.031281,530.885559 457.055206,539.494995 
	C457.064911,542.993347 456.821106,546.512085 457.150421,549.978088 
	C457.251404,551.041199 458.872284,551.959961 460.273315,552.945435 
z"/>
<path fill="#8A2BE2" opacity="1.000000" stroke="none" 
	d="
M444.471680,408.315857 
	C461.087067,408.278625 477.254242,408.401672 493.417786,408.215363 
	C511.691071,408.004791 517.572571,412.907227 520.600586,431.938019 
	C517.026733,429.541595 513.528687,427.626251 510.552277,425.097015 
	C506.326813,421.506531 501.549377,420.378021 496.218872,420.400513 
	C480.720154,420.465820 465.218658,420.609497 449.723236,420.382477 
	C443.356903,420.289246 438.033173,421.858154 433.438110,426.407074 
	C430.774048,429.044373 427.540833,431.106720 424.150940,433.749664 
	C425.821960,417.329102 431.092407,410.768433 444.471680,408.315857 
z"/>
<path fill="#FF69B4" opacity="1.000000" stroke="none" 
	d="
M746.106934,410.971558 
	C750.623413,409.924408 754.793457,408.365387 758.992371,408.283539 
	C774.813477,407.975128 790.644226,408.207428 806.470764,408.122070 
	C821.013306,408.043579 826.624084,412.193481 830.420288,426.177338 
	C830.981323,428.244141 831.418701,430.344513 832.259644,433.889313 
	C827.973633,430.467316 824.595703,427.984375 821.468018,425.218445 
	C817.647949,421.839935 813.325317,420.317993 808.244019,420.343903 
	C793.083984,420.421204 777.921082,420.500763 762.763489,420.285461 
	C756.008789,420.189545 749.999939,421.335175 744.783752,426.065125 
	C742.256042,428.357178 738.972839,429.816101 734.768921,432.440521 
	C738.049927,424.087555 738.210815,415.803101 746.106934,410.971558 
z"/>
<path fill="#FF69B4" opacity="1.000000" stroke="none" 
	d="
M908.940979,610.721191 
	C907.673035,610.650085 906.881775,610.220947 906.111267,610.255371 
	C903.096436,610.390137 900.995422,609.747437 900.804932,606.091797 
	C900.624207,602.622559 901.878479,600.732300 905.731812,600.357727 
	C912.344971,600.333984 918.647705,600.625183 924.951782,600.659180 
	C940.268738,600.741821 955.586548,600.751770 970.903442,600.678833 
	C974.165344,600.663269 976.336426,601.114929 976.354187,605.192078 
	C976.371948,609.235291 974.548279,610.350342 970.861267,610.351013 
	C950.383240,610.354736 929.905273,610.487549 908.940979,610.721191 
z"/>
<path fill="#FF69B4" opacity="1.000000" stroke="none" 
	d="
M770.148560,574.235229 
	C762.619080,570.190186 759.570679,563.771484 761.545654,556.772278 
	C763.337158,550.423279 769.033691,546.376770 775.856018,546.607056 
	C782.759949,546.840027 788.098877,551.470581 789.505493,558.304565 
	C791.145325,566.271118 784.146790,578.096680 770.148560,574.235229 
z"/>
<path fill="#FF69B4" opacity="1.000000" stroke="none" 
	d="
M834.478027,546.658569 
	C842.539429,548.747192 846.859070,553.669739 846.966980,560.500061 
	C847.065857,566.758118 842.916199,572.424744 836.806946,574.374023 
	C830.660950,576.334961 824.158264,574.098083 820.641418,568.669312 
	C817.582031,563.946716 817.316345,558.945801 820.007751,554.015991 
	C823.014404,548.508484 827.820496,546.086487 834.478027,546.658569 
z"/>
<path fill="#8A2BE2" opacity="1.000000" stroke="none" 
	d="
M356.540558,570.211487 
	C360.120117,570.197998 363.075226,570.508057 363.013763,574.735107 
	C362.935913,580.091492 359.009766,579.816772 355.002899,580.081177 
	C336.701935,580.131836 318.766205,579.975830 300.831451,580.052734 
	C296.911713,580.069519 295.499054,578.667175 295.591156,574.807129 
	C295.689545,570.685059 298.146576,570.473938 301.267975,570.473083 
	C319.539490,570.468201 337.810974,570.378845 356.540558,570.211487 
z"/>
<path fill="#FF69B4" opacity="1.000000" stroke="none" 
	d="
M793.899170,583.928833 
	C800.518433,578.674072 807.771606,578.385742 813.264465,582.900513 
	C818.305054,587.043335 819.872070,594.167847 817.033203,600.035645 
	C813.308411,607.734863 804.089050,610.543457 796.745972,606.215942 
	C789.110107,601.715881 787.803650,592.436951 793.899170,583.928833 
z"/>
<path fill="#FF69B4" opacity="1.000000" stroke="none" 
	d="
M808.869873,513.801697 
	C816.541260,517.629211 819.535034,523.287659 818.008179,530.470703 
	C816.765686,536.316101 811.096375,540.967163 804.671936,541.411804 
	C798.450317,541.842468 792.737244,537.928711 790.631042,531.589294 
	C788.996704,526.670166 789.664368,521.959595 793.061584,517.993103 
	C797.168152,513.198425 802.523193,512.180847 808.869873,513.801697 
z"/>
<path fill="#FF69B4" opacity="1.000000" stroke="none" 
	d="
M887.392822,514.337036 
	C885.920837,514.286499 884.919250,514.099915 883.937866,514.175293 
	C880.679504,514.425598 878.436279,513.540649 878.105957,509.803345 
	C877.762329,505.915680 879.657166,504.304901 883.676697,504.153625 
	C890.001099,504.325836 895.943909,504.689423 901.890564,504.769196 
	C909.862122,504.876160 917.839905,504.892242 925.808350,504.686646 
	C929.383606,504.594391 931.415100,505.225861 931.426575,509.475494 
	C931.438293,513.795654 929.185547,514.297729 925.745239,514.279663 
	C913.121399,514.213318 900.496826,514.295044 887.392822,514.337036 
z"/>
<path fill="#8A2BE2" opacity="1.000000" stroke="none" 
	d="
M363.533997,539.801880 
	C366.818909,540.314148 369.444153,540.622253 369.190918,545.084778 
	C368.887451,550.432190 365.068878,549.206360 361.723877,549.972961 
	C351.227692,549.980591 341.119141,549.847717 331.010284,549.813354 
	C327.822601,549.802490 325.113678,549.903259 325.059814,545.324097 
	C325.006744,540.809387 327.226379,540.226379 330.955963,540.231628 
	C341.718323,540.246826 352.481110,539.973145 363.533997,539.801880 
z"/>
<path fill="#8A2BE2" opacity="1.000000" stroke="none" 
	d="
M371.481628,504.327850 
	C377.691895,505.477661 379.801544,508.486145 376.851013,512.034363 
	C375.521667,513.632996 372.291687,513.651184 369.574463,514.481201 
	C363.272858,514.482971 357.316223,514.210571 351.370697,514.365295 
	C347.843140,514.457092 346.240051,513.563904 346.297333,509.676086 
	C346.355194,505.750061 347.779480,504.497345 351.657349,504.621857 
	C358.104645,504.828888 364.568787,504.512146 371.481628,504.327850 
z"/>
<path fill="#FF69B4" opacity="1.000000" stroke="none" 
	d="
M895.232666,549.935181 
	C892.673279,549.676941 890.026428,549.996277 888.679565,548.823120 
	C887.411255,547.718506 886.824341,544.876526 887.244751,543.109985 
	C887.545471,541.846252 890.004456,541.096130 891.894897,540.007446 
	C899.928467,539.958252 907.569336,540.139893 915.205750,540.023987 
	C918.662781,539.971497 919.895813,541.211731 919.860779,544.688965 
	C919.826294,548.113647 919.125305,549.967224 915.150391,549.828918 
	C908.679443,549.603882 902.192932,549.826965 895.232666,549.935181 
z"/>
<path fill="#8A2BE2" opacity="1.000000" stroke="none" 
	d="
M277.810120,570.434448 
	C286.115204,570.591431 287.335358,571.241089 286.621277,575.913940 
	C286.391479,577.417908 284.289642,579.722717 282.950531,579.789856 
	C275.506348,580.162842 268.031494,579.858337 260.571045,579.997437 
	C256.890686,580.066040 256.731689,577.919250 256.694000,575.159729 
	C256.652679,572.134216 257.627777,570.405334 260.919037,570.436279 
	C266.391357,570.487671 271.864655,570.440552 277.810120,570.434448 
z"/>
<path fill="#FF69B4" opacity="1.000000" stroke="none" 
	d="
M902.019226,580.057922 
	C900.535278,580.027649 899.534851,579.775574 898.570312,579.874207 
	C895.200378,580.218628 893.533264,578.441162 893.332581,575.394165 
	C893.119385,572.158508 894.559082,569.980225 898.558472,569.904846 
	C905.227966,570.047058 911.517151,570.400024 917.803284,570.353149 
	C921.473816,570.325745 923.315674,571.261963 923.307434,575.379272 
	C923.299316,579.419739 921.307678,580.024536 917.981445,579.938354 
	C912.831299,579.804932 907.673706,579.962646 902.019226,580.057922 
z"/>
<path fill="#FF69B4" opacity="1.000000" stroke="none" 
	d="
M974.268188,545.684998 
	C972.841736,547.319397 971.480286,549.547974 969.994629,549.634094 
	C963.216003,550.027039 956.401062,549.739380 949.602173,549.861938 
	C946.560730,549.916687 945.449219,548.624695 945.543457,545.683350 
	C945.632080,542.917358 945.390991,540.150635 949.374817,540.146118 
	C956.507263,540.138000 963.639709,540.096985 970.772156,540.082947 
	C974.512512,540.075623 974.396179,542.689148 974.268188,545.684998 
z"/>
<path fill="#FF69B4" opacity="1.000000" stroke="none" 
	d="
M1009.663452,547.927612 
	C1008.134399,548.780640 1006.825256,549.725403 1005.492676,549.759705 
	C999.374939,549.917114 993.250427,549.777161 987.129089,549.831604 
	C983.973694,549.859680 982.694763,548.451965 982.759827,545.287964 
	C982.821350,542.297668 983.223450,540.027832 987.000122,540.101013 
	C992.292419,540.203552 997.588318,540.129578 1002.882629,540.119568 
	C1010.356628,540.105530 1010.437317,540.187317 1009.663452,547.927612 
z"/>
<path fill="#8A2BE2" opacity="1.000000" stroke="none" 
	d="
M349.732849,600.557007 
	C353.495514,600.713867 355.440338,601.736633 355.234863,605.817322 
	C354.966705,611.142944 351.211609,609.837280 347.930603,610.427612 
	C342.986816,610.473511 338.355988,610.230164 333.736053,610.364075 
	C329.795685,610.478210 329.674622,608.164795 329.639862,605.224609 
	C329.603577,602.149353 330.533386,600.615479 333.893188,600.711121 
	C339.015808,600.857056 344.147400,600.687073 349.732849,600.557007 
z"/>
<path fill="#8A2BE2" opacity="1.000000" stroke="none" 
	d="
M297.945648,514.317993 
	C296.996857,511.574677 296.163635,508.873291 296.178314,506.176514 
	C296.181152,505.659027 299.489960,504.968750 301.323425,504.706329 
	C303.120026,504.449249 304.991608,504.763702 306.809967,504.600830 
	C310.205780,504.296600 312.501648,504.589447 312.510376,509.121490 
	C312.518768,513.484009 310.845825,514.720276 306.846710,514.375610 
	C304.037018,514.133423 301.187836,514.349854 297.945648,514.317993 
z"/>
<path fill="#FF69B4" opacity="1.000000" stroke="none" 
	d="
M942.235046,641.450684 
	C944.269531,639.405945 955.439819,637.836121 956.722961,639.565491 
	C957.905273,641.158997 958.008179,643.801331 957.937622,645.960510 
	C957.907410,646.886963 956.285889,648.464233 955.301270,648.534241 
	C951.198242,648.826111 947.062439,648.657043 942.166687,648.657043 
	C942.166687,646.061096 942.166687,643.970337 942.235046,641.450684 
z"/>
<path fill="#8A2BE2" opacity="1.000000" stroke="none" 
	d="
M308.950195,620.094116 
	C304.739075,620.597656 300.820251,620.825806 296.898193,620.923645 
	C293.357513,621.012024 293.275024,618.251709 293.773560,616.083374 
	C294.195831,614.246765 295.552124,611.519714 296.928375,611.227539 
	C300.240875,610.524170 303.836578,610.774536 307.252930,611.183838 
	C308.215485,611.299133 309.449310,613.206543 309.672058,614.450745 
	C309.974731,616.141235 309.425140,617.984253 308.950195,620.094116 
z"/>
</svg>
